#N canvas 463 229 1338 689 12;
#X obj 606 172 gemhead;
#X obj 675 704 r tamanho;
#X obj 617 533 translateXYZ;
#X obj 653 375 random 1000;
#X obj 652 403 / 1000;
#X obj 652 428 * 7.6;
#X obj 652 453 - 3.8;
#X obj 754 376 random 1000;
#X obj 754 401 / 1000;
#X obj 754 426 * 7.6;
#X obj 754 451 - 3.8;
#X obj 746 331 loadbang;
#X obj 601 732 circle 0.06;
#X obj 594 326 rotateXYZ;
#X obj 654 285 r RODAR;
#X obj 606 17 r Shuter;
#X obj 689 33 r Blink;
#X obj 689 61 random 100;
#X floatatom 769 90 5 0 0 0 - - -;
#X obj 789 53 r BlinkChance;
#X obj 606 227 alpha;
#X obj 601 670 colourRGB 1 1 1 1;
#X obj 606 197 t a b;
#X obj 961 510 sin;
#X floatatom 973 414 0 0 0 0 - - -;
#X obj 973 466 * 6.28319;
#X obj 973 440 / 360;
#X obj 926 281 f;
#X obj 926 306 + 1;
#X obj 961 545 + 1;
#X obj 961 570 / 2;
#X obj 1021 183 loadbang;
#X obj 1005 227 random 1000;
#X obj 689 86 > -1;
#X obj 969 276 r FadeSpeed;
#X obj 912 663 spigot;
#X obj 846 507 r Fade;
#X obj 846 532 t f f;
#X obj 846 557 == 0;
#X obj 961 595 pow 2;
#X connect 0 0 22 0;
#X connect 1 0 12 1;
#X connect 2 0 21 0;
#X connect 3 0 4 0;
#X connect 4 0 5 0;
#X connect 5 0 6 0;
#X connect 6 0 2 1;
#X connect 7 0 8 0;
#X connect 8 0 9 0;
#X connect 9 0 10 0;
#X connect 10 0 2 2;
#X connect 11 0 3 0;
#X connect 11 0 7 0;
#X connect 13 0 2 0;
#X connect 14 0 13 3;
#X connect 15 0 0 0;
#X connect 16 0 17 0;
#X connect 17 0 33 0;
#X connect 18 0 33 1;
#X connect 19 0 18 0;
#X connect 20 0 13 0;
#X connect 21 0 12 0;
#X connect 22 0 20 0;
#X connect 22 1 27 0;
#X connect 23 0 29 0;
#X connect 24 0 26 0;
#X connect 25 0 23 0;
#X connect 26 0 25 0;
#X connect 27 0 28 0;
#X connect 28 0 27 1;
#X connect 28 0 24 0;
#X connect 29 0 30 0;
#X connect 30 0 39 0;
#X connect 31 0 32 0;
#X connect 32 0 27 0;
#X connect 33 0 0 0;
#X connect 34 0 28 1;
#X connect 35 0 21 4;
#X connect 36 0 37 0;
#X connect 37 0 38 0;
#X connect 37 1 35 1;
#X connect 38 0 21 4;
#X connect 39 0 35 0;
