#N canvas 710 111 1095 637 12;
#X obj 367 321 s tamanho;
#X floatatom 367 295 5 0 0 0 - - -;
#X obj 124 197 gemwin;
#X msg 198 112 destroy;
#X msg 61 114 reset \, create \, 1;
#X floatatom 245 382 12 0 0 0 - - -;
#X obj 245 414 s RODAR;
#X obj -85 -1 vradio 15 1 0 3 empty empty empty 0 -8 0 10 -262144 -1
-1 0;
#X floatatom -85 50 5 0 0 0 - - -;
#X msg -85 71 reset \, fullscreen \$1 \, create \, 1;
#X text -63 -4 deactivate fullscreen;
#X text -64 13 fullscreen on screen 1;
#X text -64 29 fullscreen on screen 2;
#X msg -72 126 0 \, destroy;
#N canvas 107 50 450 300 esc 0;
#X obj 65 20 gemkeyboard;
#X obj 65 167 outlet;
#X obj 89 71 keyname;
#X obj 128 96 sel Escape;
#X obj 65 41 sel 53;
#X obj 189 47 sel Escape;
#X obj 150 22 gemkeyname;
#X connect 0 0 4 0;
#X connect 2 1 3 0;
#X connect 3 0 1 0;
#X connect 4 0 1 0;
#X connect 5 0 1 0;
#X connect 6 1 5 0;
#X restore -72 104 pd esc;
#X obj -85 155 s \$0-gemwin-in;
#X text 111 11 press ESC to quit;
#X obj 310 81 netreceive 2000;
#X obj 283 31 clone bola 30;
#X obj 427 269 s Shuter;
#X obj 245 293 b;
#X obj 245 268 gemhead;
#X obj 245 328 f;
#X obj 245 353 + 1;
#X floatatom 308 323 5 0 0 0 - - -;
#X obj 170 291 b;
#X obj 170 266 gemhead;
#X obj 145 395 s Blink;
#X obj 201 236 tgl 15 0 empty empty empty 17 7 0 10 -262144 -1 -1 0
1;
#X floatatom 502 195 5 0 0 0 - - -;
#X obj 482 229 s BlinkChance;
#X floatatom 710 181 5 0 0 0 - - -;
#X obj 697 232 s FadeSpeed;
#X obj 308 107 route rodar tamanho Shuter Blink Fade FadeSpeed;
#X obj 435 228 tgl 15 0 empty empty empty 17 7 0 10 -262144 -1 -1 0
1;
#X obj 603 237 tgl 15 0 empty empty empty 17 7 0 10 -262144 -1 -1 0
1;
#X obj 595 278 s Fade;
#X obj 493 331 netreceive -u -b 9000;
#X obj 500 540 print A;
#X obj 664 566 print;
#X obj 493 355 osc/unpackOSC;
#X obj 492 389 route /0/dmx/0 /0/dmx/1;
#X obj 754 535 print outros;
#X connect 1 0 0 0;
#X connect 3 0 2 0;
#X connect 4 0 2 0;
#X connect 5 0 6 0;
#X connect 7 0 8 0;
#X connect 8 0 9 0;
#X connect 9 0 15 0;
#X connect 9 0 2 0;
#X connect 13 0 15 0;
#X connect 13 0 2 0;
#X connect 14 0 13 0;
#X connect 17 0 33 0;
#X connect 20 0 22 0;
#X connect 21 0 20 0;
#X connect 22 0 23 0;
#X connect 23 0 22 1;
#X connect 23 0 5 0;
#X connect 24 0 23 1;
#X connect 25 0 27 0;
#X connect 26 0 25 0;
#X connect 28 0 26 0;
#X connect 29 0 30 0;
#X connect 31 0 32 0;
#X connect 33 0 24 0;
#X connect 33 1 1 0;
#X connect 33 2 34 0;
#X connect 33 3 29 0;
#X connect 33 4 35 0;
#X connect 33 5 31 0;
#X connect 34 0 19 0;
#X connect 35 0 36 0;
#X connect 37 0 40 0;
#X connect 40 0 41 0;
#X connect 41 0 38 0;
#X connect 41 1 39 0;
#X connect 41 2 42 0;
